<?xml version="1.0" standalone="no"?>
<!DOCTYPE svg PUBLIC "-//W3C//DTD SVG 20010904//EN"
 "http://www.w3.org/TR/2001/REC-SVG-20010904/DTD/svg10.dtd">
<svg version="1.0" xmlns="http://www.w3.org/2000/svg"
 width="103.000000pt" height="119.000000pt" viewBox="0 0 103.000000 119.000000"
 preserveAspectRatio="xMidYMid meet">

<g transform="translate(0.000000,119.000000) scale(0.100000,-0.100000)"
fill="#ffffff" stroke="none">
<path d="M826 1181 c68 -11 111 -44 125 -95 14 -50 6 -139 -15 -171 -20 -30
-20 -35 -2 -35 22 0 64 -56 76 -101 14 -53 -10 -140 -48 -176 -32 -30 -114
-73 -139 -73 -37 0 -43 -13 -27 -55 l15 -40 -4 40 c-4 37 -2 41 19 43 14 1 46
13 73 27 141 71 170 243 57 336 -17 14 -17 18 -4 45 25 49 29 96 13 152 -21
69 -65 104 -138 108 l-52 3 51 -8z"/>
<path d="M712 1150 c-23 -17 -42 -33 -42 -37 0 -3 8 1 18 9 9 9 33 25 52 37
19 11 30 21 24 21 -6 0 -30 -14 -52 -30z"/>
<path d="M802 1097 c-19 -20 -82 -152 -139 -289 -22 -56 -44 -49 -88 26 -37
63 -73 95 -94 82 -22 -14 -10 -64 30 -130 52 -87 65 -119 74 -183 11 -82 41
-92 90 -28 25 33 105 77 220 121 41 16 50 24 50 44 0 36 -43 38 -105 6 -27
-14 -61 -26 -76 -26 -26 0 -26 1 -20 48 4 26 28 92 55 147 55 113 71 155 67
182 -4 27 -39 27 -64 0z"/>
<path d="M645 1070 c-8 -16 -15 -41 -15 -55 l0 -26 -29 20 c-56 40 -159 20
-202 -41 -29 -40 -35 -97 -15 -136 21 -41 20 -43 -8 -36 -35 8 -88 -11 -120
-45 -31 -32 -57 -116 -45 -146 12 -31 11 -35 -11 -35 -30 0 -91 -28 -118 -53
-46 -43 -78 -153 -63 -217 12 -53 65 -140 116 -191 25 -25 68 -52 115 -71 66
-28 87 -32 175 -32 95 -1 104 1 175 35 98 47 132 77 177 157 33 60 37 73 39
151 l2 86 -7 -80 c-12 -137 -76 -228 -207 -295 -61 -31 -79 -35 -159 -38 -81
-3 -99 0 -175 28 -94 34 -133 66 -186 147 -46 72 -58 125 -45 197 16 89 70
143 156 156 28 4 39 10 36 20 -20 73 1 145 53 185 25 19 45 25 84 25 29 0 52
2 52 4 0 2 -7 20 -15 39 -33 79 -13 140 55 175 55 27 84 28 133 2 47 -26 47
-26 47 10 0 17 7 44 15 60 9 17 13 30 11 30 -3 0 -12 -13 -21 -30z"/>
<path d="M341 691 c-27 -27 -26 -39 4 -191 13 -69 25 -137 25 -152 0 -26 -2
-27 -27 -17 -15 5 -54 30 -87 55 -90 67 -136 72 -136 15 0 -33 20 -51 125
-114 77 -46 108 -78 140 -149 32 -70 51 -74 85 -17 39 64 111 149 183 215 66
60 81 89 52 100 -27 11 -81 -16 -141 -70 -32 -30 -62 -52 -66 -50 -14 9 -39
110 -53 218 -21 153 -56 205 -104 157z"/>
</g>
</svg>
